<svg version="1.1" id="Layer_1" xmlns="http://www.w3.org/2000/svg" xmlns:xlink="http://www.w3.org/1999/xlink" x="0px" y="0px"
	 width="100%" viewBox="0 0 2048 2048" enable-background="new 0 0 2048 2048" xml:space="preserve">
<path fill="#000000" opacity="1.000000" stroke="none" 
	d="
M1199.000000,2049.000000 
	C799.333313,2049.000000 400.166656,2049.000000 1.000000,2049.000000 
	C1.000000,1366.333374 1.000000,683.666687 1.000000,1.000000 
	C683.666687,1.000000 1366.333374,1.000000 2049.000000,1.000000 
	C2049.000000,683.666687 2049.000000,1366.333374 2049.000000,2049.000000 
	C1765.833374,2049.000000 1482.666626,2049.000000 1199.000000,2049.000000 
M659.489807,1518.388428 
	C655.585449,1525.447388 651.976440,1532.694580 647.651733,1539.485962 
	C645.499695,1542.865601 645.491028,1548.421265 639.958496,1548.961548 
	C624.330505,1550.487549 608.690369,1551.891235 593.050964,1553.298584 
	C586.150574,1553.919556 579.236389,1554.389893 572.339172,1555.041138 
	C571.285767,1555.140625 570.290161,1555.851685 568.612671,1555.884766 
	C559.725769,1552.260742 550.771729,1548.791626 541.965698,1544.980713 
	C523.305847,1536.905029 504.883911,1528.254028 486.043671,1520.631592 
	C476.011688,1516.572876 465.494141,1513.125854 454.869598,1511.255371 
	C438.026825,1508.290161 420.913788,1507.692993 403.913391,1511.046631 
	C389.858917,1513.819214 376.617584,1518.913086 366.097076,1528.642456 
	C351.623199,1542.027832 344.957489,1558.727783 346.833313,1578.952393 
	C348.428833,1596.154541 355.287720,1610.911865 364.552307,1624.982910 
	C371.849060,1636.065430 381.293945,1645.101440 391.239899,1653.684814 
	C400.003204,1661.247559 408.509979,1669.158569 417.711914,1676.149902 
	C431.472504,1686.605103 445.425507,1696.873657 459.872040,1706.343628 
	C481.222992,1720.339355 502.747681,1734.135742 524.823853,1746.938477 
	C542.733887,1757.325073 561.395813,1766.471924 580.039917,1775.518188 
	C595.157593,1782.853271 610.649475,1789.447876 626.152893,1795.947876 
	C638.940369,1801.308960 651.803101,1806.611694 664.962097,1810.937744 
	C685.954590,1817.839355 707.126099,1824.245117 728.400391,1830.225464 
	C745.912537,1835.148193 763.628479,1839.389160 781.359985,1843.472168 
	C792.573059,1846.054077 803.969666,1847.852173 815.304626,1849.886841 
	C823.534241,1851.364014 831.757751,1853.004639 840.054932,1853.947876 
	C854.327148,1855.570190 868.636597,1856.957886 882.963257,1857.985718 
	C903.947815,1859.491089 924.946594,1861.100098 945.967041,1861.706177 
	C962.907532,1862.194580 979.890381,1861.322998 996.851624,1860.932861 
	C1003.813171,1860.772827 1010.795471,1860.580811 1017.719360,1859.902832 
	C1036.274536,1858.086182 1054.861328,1856.425049 1073.326660,1853.903687 
	C1093.043213,1851.211426 1112.790039,1848.334961 1132.239624,1844.202271 
	C1153.586304,1839.666382 1174.652100,1833.767334 1195.750977,1828.128052 
	C1203.980591,1825.928589 1212.027954,1822.986816 1220.051147,1820.086670 
	C1235.949951,1814.339478 1251.846924,1808.573242 1267.602539,1802.449463 
	C1277.404541,1798.639893 1287.050293,1794.383057 1296.577637,1789.924072 
	C1308.264282,1784.454346 1319.924561,1778.880249 1331.277100,1772.759399 
	C1340.981079,1767.527344 1350.310059,1761.580811 1359.669678,1755.733765 
	C1374.648560,1746.375854 1390.026367,1737.543213 1404.299805,1727.197510 
	C1421.897461,1714.442383 1438.898804,1700.791260 1455.468506,1686.715698 
	C1467.573608,1676.432861 1479.097534,1665.335205 1489.927246,1653.712524 
	C1505.971436,1636.493164 1522.255615,1619.308105 1536.430054,1600.588257 
	C1551.060425,1581.266235 1563.371094,1560.178223 1576.510620,1539.743286 
	C1579.716187,1534.757690 1582.194946,1529.304688 1585.675537,1524.213135 
	C1590.460938,1527.356079 1595.146240,1530.666382 1600.056030,1533.601318 
	C1606.898682,1537.691650 1613.943359,1541.442627 1620.841431,1545.442627 
	C1636.695679,1554.636475 1652.233887,1564.422852 1668.427979,1572.969238 
	C1683.447388,1580.895752 1699.295410,1587.236084 1714.509277,1594.815308 
	C1726.929199,1601.002441 1739.771973,1603.798096 1753.596924,1602.831787 
	C1773.538940,1601.437744 1793.362183,1588.029785 1797.103394,1567.402222 
	C1798.287354,1560.874634 1798.352295,1554.144043 1798.969116,1547.048340 
	C1799.578613,1547.048340 1800.692383,1547.054443 1801.806030,1547.047241 
	C1810.656006,1546.990601 1819.708008,1548.082397 1828.303467,1546.573853 
	C1838.424194,1544.797607 1847.915649,1540.332886 1856.760864,1534.705078 
	C1867.274902,1528.015747 1876.058472,1512.922852 1872.452026,1499.011475 
	C1869.170776,1486.355103 1860.981567,1477.500977 1849.635986,1471.192749 
	C1842.474731,1467.211060 1835.589233,1462.721191 1828.676147,1458.308594 
	C1821.092285,1453.467651 1813.718506,1448.293335 1806.076050,1443.549561 
	C1792.320679,1435.011230 1778.412109,1426.719971 1764.608521,1418.258423 
	C1755.772095,1412.841553 1747.031982,1407.267334 1738.207275,1401.831055 
	C1727.240234,1395.075195 1716.146362,1388.521729 1705.262695,1381.635376 
	C1693.691040,1374.313965 1682.308716,1366.693604 1670.828979,1359.226685 
	C1663.929932,1354.739380 1657.002686,1350.295410 1650.003296,1345.020020 
	C1650.341675,1343.081665 1650.761108,1341.153564 1651.004517,1339.203369 
	C1652.085693,1330.541626 1653.161987,1321.878662 1654.152100,1313.206177 
	C1655.080566,1305.072876 1655.898560,1296.927002 1656.839111,1287.890747 
	C1656.814819,1277.333374 1656.790405,1266.776001 1656.926880,1255.266113 
	C1656.936279,1241.235352 1656.864380,1227.203979 1656.999146,1213.174316 
	C1657.046631,1208.232666 1657.869263,1203.294922 1657.855835,1198.356812 
	C1657.838257,1191.937256 1657.339844,1185.519287 1657.638062,1178.482910 
	C1657.720703,1170.009644 1657.803223,1161.536377 1658.000732,1152.123901 
	C1658.339844,1121.433716 1658.699585,1090.743774 1659.012573,1060.053345 
	C1659.366455,1025.361328 1659.716187,990.669067 1659.991455,955.976379 
	C1660.113037,940.649109 1660.047119,925.320312 1660.679199,909.423401 
	C1660.708130,897.688416 1660.737061,885.953430 1660.908691,873.263123 
	C1661.279053,852.901001 1661.855713,832.540100 1661.971558,812.176575 
	C1662.145508,781.606506 1661.918091,751.034302 1662.029663,720.463684 
	C1662.065674,710.587708 1662.728882,700.715698 1662.936768,690.838318 
	C1663.916626,644.300354 1661.220337,597.722229 1664.778076,551.200073 
	C1665.677612,539.436462 1665.463623,527.521851 1664.839966,515.725281 
	C1664.152100,502.716187 1668.354614,491.039093 1672.927002,479.362732 
	C1677.477295,467.743073 1684.078369,457.429413 1692.306396,447.954620 
	C1704.864014,433.494354 1719.828735,424.601013 1739.460815,424.958771 
	C1757.743408,425.291901 1776.030518,426.044037 1794.306641,425.833679 
	C1807.498535,425.681885 1809.433350,420.644562 1809.141479,411.519348 
	C1808.845337,402.264496 1809.718750,392.974152 1810.017822,383.697357 
	C1810.133179,380.119965 1810.008423,376.535065 1810.111938,372.957031 
	C1810.363770,364.254944 1810.903076,355.555786 1810.939697,346.853851 
	C1811.067383,316.528717 1811.169922,286.201935 1810.966797,255.877930 
	C1810.910522,247.469284 1809.717651,239.070938 1809.153809,230.660660 
	C1809.045288,229.042603 1809.298706,227.362534 1809.625122,225.760010 
	C1810.674316,220.611710 1808.910156,215.665390 1804.008789,213.815125 
	C1799.635498,212.164154 1794.739136,211.147476 1790.071167,211.139236 
	C1698.255615,210.977432 1606.439331,211.113937 1514.623779,210.948669 
	C1463.842407,210.857254 1413.062134,210.285614 1362.280884,210.015442 
	C1347.454956,209.936554 1332.627563,210.150162 1316.908325,210.101257 
	C1303.303223,210.107666 1289.697998,210.114075 1275.148193,210.037704 
	C1269.402466,210.065598 1263.656738,210.093491 1256.993042,210.034653 
	C1238.359863,210.063812 1219.726807,210.092972 1200.147949,210.048813 
	C1192.857788,210.365067 1185.569458,210.897018 1178.276978,210.962387 
	C1132.847656,211.369583 1087.417114,211.678268 1041.987061,212.004868 
	C1032.699585,212.071625 1028.927490,215.649307 1029.045532,225.033432 
	C1029.208618,237.980530 1029.765503,250.922241 1029.989136,263.869080 
	C1030.398926,287.576630 1030.732178,311.285767 1031.007446,334.995300 
	C1031.131226,345.652496 1031.038330,356.312195 1030.991333,367.912018 
	C1030.989136,371.712128 1030.894897,375.514954 1031.005737,379.311768 
	C1031.187378,385.527649 1031.502686,391.739655 1031.910767,398.851196 
	C1032.300781,402.796875 1032.479858,406.777985 1033.135254,410.679138 
	C1033.928833,415.403534 1036.843262,418.517242 1041.704102,418.908386 
	C1052.343506,419.764557 1062.998169,420.652771 1073.662354,420.935852 
	C1105.321655,421.776184 1136.986938,422.416962 1168.653076,422.954407 
	C1182.114868,423.182892 1195.584351,422.960266 1209.974609,423.037292 
	C1234.848389,422.869049 1259.722046,422.700836 1285.393555,422.957947 
	C1287.825684,423.308502 1290.262329,423.989532 1292.689209,423.956451 
	C1309.532959,423.726868 1325.328613,427.264313 1340.464966,434.990753 
	C1357.330566,443.599915 1371.803833,455.223541 1383.084717,469.998352 
	C1403.150757,496.279480 1414.135498,526.018066 1412.213623,559.700928 
	C1412.161377,560.618225 1412.754150,561.557678 1412.952515,562.506409 
	C1413.656982,565.874329 1414.919067,569.254639 1414.897339,572.623352 
	C1414.798096,588.074341 1414.013672,603.523926 1414.058472,618.972290 
	C1414.266357,690.680359 1414.731079,762.387695 1414.975220,834.095703 
	C1415.112549,874.416931 1415.000000,914.739014 1414.335815,954.800354 
	C1407.549927,944.178162 1400.945679,933.434082 1393.925415,922.968994 
	C1387.277222,913.058411 1380.164429,903.460510 1373.308105,893.688477 
	C1366.715576,884.292542 1360.288452,874.779175 1353.610107,865.445190 
	C1345.186646,853.672058 1336.636963,841.987976 1328.032593,830.346130 
	C1323.776245,824.587036 1319.366943,818.934570 1314.861816,813.367371 
	C1309.076904,806.218628 1303.118042,799.210754 1297.248291,792.130493 
	C1286.984741,779.750427 1276.850464,767.260681 1266.431519,755.013000 
	C1259.940063,747.382202 1253.041626,740.096680 1246.296387,732.683044 
	C1236.192261,721.577698 1226.369873,710.194336 1215.865723,699.480103 
	C1202.657593,686.007751 1189.068726,672.892273 1175.294800,659.995850 
	C1163.744873,649.181641 1152.072754,638.432617 1139.762939,628.513062 
	C1126.198486,617.582275 1112.016479,607.387573 1097.773193,597.340393 
	C1088.576904,590.853455 1079.181152,584.426025 1069.164917,579.381226 
	C1056.300781,572.901978 1042.859497,567.489685 1029.417480,562.258301 
	C1015.819580,556.966248 1001.997192,552.209656 988.113281,547.711975 
	C981.598206,545.601501 974.707764,544.649902 967.370667,542.597351 
	C965.309631,533.165405 963.660095,523.619263 961.083923,514.330200 
	C957.823975,502.575348 954.691467,490.654480 949.932495,479.474091 
	C940.843750,458.121338 930.796448,437.102905 916.957642,418.318298 
	C905.721680,403.066833 894.628357,387.526520 881.750061,373.720428 
	C868.818542,359.857391 854.099854,347.571167 839.508728,335.378571 
	C829.857605,327.313965 819.467407,319.930634 808.655212,313.510010 
	C795.085571,305.451904 781.048401,298.016785 766.655273,291.555023 
	C751.629822,284.809418 736.102295,279.064087 720.486450,273.793701 
	C710.167175,270.310974 699.358765,268.184143 688.671448,265.910492 
	C676.664062,263.355957 664.625916,260.604889 652.455261,259.251038 
	C639.308044,257.788574 625.997009,257.649994 612.747864,257.312439 
	C605.637634,257.131317 598.482056,257.452271 591.391174,258.062042 
	C577.438599,259.261871 563.384888,260.062134 549.621582,262.456482 
	C537.156067,264.625061 525.114929,269.126160 512.716614,271.814972 
	C497.754120,275.059906 483.471405,279.994720 469.739685,286.653564 
	C459.766083,291.490021 449.490234,295.817963 439.945251,301.393219 
	C429.123016,307.714508 418.629547,314.727112 408.610077,322.259735 
	C397.742371,330.430115 387.222229,339.152893 377.238342,348.379089 
	C369.853363,355.203583 363.343628,363.030182 356.859406,370.758881 
	C350.321075,378.552032 343.618286,386.346680 338.199768,394.907898 
	C329.540619,408.589325 321.026093,422.494843 314.053162,437.072266 
	C307.575989,450.613281 302.602264,464.970367 298.082184,479.319550 
	C294.566620,490.479706 292.571869,502.141602 290.287384,513.657104 
	C289.163361,519.323181 288.914337,525.162781 287.374878,530.966309 
	C276.847748,533.830444 266.062958,535.987976 255.849564,539.712402 
	C237.199997,546.513306 218.850052,554.110657 202.016266,564.940369 
	C191.063675,571.986511 180.526749,579.482239 173.217422,590.458313 
	C169.899094,595.441162 165.952988,600.903259 165.205566,606.534668 
	C162.857742,624.224365 170.364517,637.950012 184.081757,649.259155 
	C196.174072,659.228760 209.836578,666.280090 224.028336,671.949341 
	C241.770309,679.036682 260.223846,684.360657 278.438110,690.235229 
	C282.909760,691.677429 287.645325,692.301453 292.125427,693.736267 
	C292.125427,693.736267 292.165588,694.189270 292.014740,694.947205 
	C287.013123,711.943481 281.831512,728.889526 277.071075,745.953125 
	C273.721588,757.959229 270.661499,770.063049 267.992188,782.237244 
	C265.329407,794.381897 263.147736,806.640381 261.075562,818.903137 
	C259.746490,826.768494 258.913330,834.722290 258.013702,842.654114 
	C257.221863,849.635864 256.637360,856.641418 255.977539,863.637939 
	C254.644669,877.771301 252.350311,891.894836 252.192169,906.041870 
	C251.825256,938.863586 250.950134,971.730591 254.053436,1004.496704 
	C254.618790,1010.465881 255.316879,1016.432190 256.237152,1022.355835 
	C257.701782,1031.783203 259.348541,1041.183594 261.020630,1050.577148 
	C263.205627,1062.852295 265.092316,1075.200439 267.862305,1087.344971 
	C269.954651,1096.518555 273.200165,1105.431519 275.987854,1114.443359 
	C279.757263,1126.628784 282.786560,1139.119385 287.564392,1150.898682 
	C294.828156,1168.806763 302.904175,1186.420776 311.426392,1203.771240 
	C317.892303,1216.935303 324.994598,1229.875854 332.901978,1242.218628 
	C341.448700,1255.559570 350.960419,1268.319824 360.604034,1280.909912 
	C370.096283,1293.302490 379.823883,1305.576660 390.269135,1317.162842 
	C406.158173,1334.787476 423.004211,1351.539185 441.762146,1366.167847 
	C457.395142,1378.359497 473.034973,1390.589844 489.273743,1401.941895 
	C501.730347,1410.649780 514.999084,1418.231445 528.143311,1425.908569 
	C538.292297,1431.836426 548.667908,1437.419922 559.203613,1442.628906 
	C568.447388,1447.199097 577.976440,1451.223389 587.517273,1455.154175 
	C602.893738,1461.489502 618.213501,1468.029053 633.875305,1473.585571 
	C648.322632,1478.711304 663.188477,1482.657349 677.630066,1487.757324 
	C674.995789,1491.844604 672.188293,1495.832153 669.769043,1500.042969 
	C666.382141,1505.937988 663.284546,1511.999390 659.489807,1518.388428 
z"/>
<path fill="#F9DCB4" opacity="1.000000" stroke="none" 
	d="
M677.869995,1487.122803 
	C663.188477,1482.657349 648.322632,1478.711304 633.875305,1473.585571 
	C618.213501,1468.029053 602.893738,1461.489502 587.517273,1455.154175 
	C577.976440,1451.223389 568.447388,1447.199097 559.203613,1442.628906 
	C548.667908,1437.419922 538.292297,1431.836426 528.143311,1425.908569 
	C514.999084,1418.231445 501.730347,1410.649780 489.273743,1401.941895 
	C473.034973,1390.589844 457.395142,1378.359497 441.762146,1366.167847 
	C423.004211,1351.539185 406.158173,1334.787476 390.269135,1317.162842 
	C379.823883,1305.576660 370.096283,1293.302490 360.604034,1280.909912 
	C350.960419,1268.319824 341.448700,1255.559570 332.901978,1242.218628 
	C324.994598,1229.875854 317.892303,1216.935303 311.426392,1203.771240 
	C302.904175,1186.420776 294.828156,1168.806763 287.564392,1150.898682 
	C282.786560,1139.119385 279.757263,1126.628784 275.987854,1114.443359 
	C273.200165,1105.431519 269.954651,1096.518555 267.862305,1087.344971 
	C265.092316,1075.200439 263.205627,1062.852295 261.020630,1050.577148 
	C259.348541,1041.183594 257.701782,1031.783203 256.237152,1022.355835 
	C255.316879,1016.432190 254.618790,1010.465881 254.053436,1004.496704 
	C250.950134,971.730591 251.825256,938.863586 252.192169,906.041870 
	C252.350311,891.894836 254.644669,877.771301 255.977539,863.637939 
	C256.637360,856.641418 257.221863,849.635864 258.013702,842.654114 
	C258.913330,834.722290 259.746490,826.768494 261.075562,818.903137 
	C263.147736,806.640381 265.329407,794.381897 267.992188,782.237244 
	C270.661499,770.063049 273.721588,757.959229 277.071075,745.953125 
	C281.831512,728.889526 287.013123,711.943481 292.293823,694.540039 
	C292.889282,693.771179 293.205688,693.409424 293.821106,692.908203 
	C295.674988,692.635132 297.229889,692.501587 298.851288,692.592285 
	C299.593018,692.854797 300.268311,692.893188 301.262878,693.002502 
	C302.014679,693.128601 302.447174,693.183777 303.069702,693.529053 
	C306.257446,694.314270 309.255096,694.809387 312.563324,695.363831 
	C313.499756,695.371216 314.125641,695.319336 315.114319,695.459717 
	C319.215240,695.328186 323.285767,695.845825 326.629944,694.524780 
	C337.215576,690.343079 347.680145,685.777588 357.875214,680.722534 
	C361.993103,678.680847 365.292236,674.987793 369.211609,671.881287 
	C369.910797,671.328857 370.362305,670.941406 371.130432,670.592529 
	C372.251038,669.742371 373.055023,668.853577 374.109314,667.751587 
	C375.917908,666.006836 377.476166,664.475342 379.362122,662.908813 
	C380.949219,661.171204 382.208588,659.468689 383.627075,657.576904 
	C383.786255,657.387573 384.051025,656.969788 384.367859,656.916748 
	C385.272156,655.829712 385.859680,654.795593 386.608276,653.568909 
	C386.857849,653.234131 386.946350,653.092041 387.357910,652.894348 
	C401.668915,635.090393 403.638336,606.079834 392.100494,587.063354 
	C391.620575,586.272400 390.715057,585.739624 389.911499,584.751709 
	C388.949371,583.039673 388.083496,581.662476 387.333130,579.891113 
	C388.397980,578.070496 389.093048,576.350769 390.341034,575.268494 
	C395.525787,570.771973 400.877380,566.467712 406.380676,562.020630 
	C406.593597,561.948425 406.918091,561.637146 407.254700,561.616394 
	C415.229828,556.554993 422.860718,551.502625 430.509705,546.477844 
	C435.339691,543.304932 440.196686,540.173157 445.282257,536.959839 
	C445.522949,536.896667 445.918274,536.594360 446.270203,536.602295 
	C455.325409,532.274292 464.037720,527.956421 472.725861,523.590332 
	C475.093750,522.400330 477.132690,521.845825 477.746826,525.621338 
	C477.344330,526.613403 477.104584,527.286621 476.550110,528.075806 
	C475.192444,532.772888 474.149475,537.354065 473.025330,542.256226 
	C472.889954,543.015015 472.835754,543.452820 472.473206,544.086548 
	C472.383026,551.214478 472.601166,558.146484 472.857361,565.414307 
	C472.997284,566.188843 473.099152,566.627563 472.963989,567.294556 
	C474.123291,571.681763 475.519592,575.840515 477.013428,580.353088 
	C477.408966,581.376587 477.706940,582.046326 477.857483,583.029297 
	C478.815155,585.189575 479.920258,587.036499 481.143127,589.119446 
	C481.362823,589.498718 481.464752,589.642029 481.495850,590.125916 
	C483.276062,592.955627 485.127136,595.444763 487.159058,598.202148 
	C488.356140,599.592651 489.372406,600.714966 490.381409,602.161560 
	C491.654968,603.491882 492.935791,604.497864 494.432251,605.712036 
	C495.121368,606.286072 495.594879,606.651978 496.102539,607.347168 
	C497.805176,608.663574 499.473663,609.650696 501.341736,610.770264 
	C501.541290,610.902710 501.972504,611.111389 502.039124,611.405518 
	C502.809448,611.947815 503.513123,612.195923 504.467773,612.618835 
	C505.089722,612.961365 505.460724,613.129211 505.941101,613.610840 
	C516.080994,620.023743 526.958435,621.177734 538.139465,618.630737 
	C542.650513,617.603149 546.827271,615.107910 551.442871,613.167969 
	C552.078857,612.841125 552.428162,612.626831 553.067139,612.490967 
	C553.904968,612.075928 554.453186,611.582458 555.220337,610.978027 
	C555.439331,610.866943 555.843872,610.588501 556.182190,610.645569 
	C558.328674,609.146973 560.136841,607.591309 562.206177,605.832397 
	C564.339966,603.753540 566.212646,601.877991 568.414062,599.979004 
	C569.666321,598.568481 570.589905,597.181335 571.677124,595.612915 
	C571.840759,595.431702 572.101135,595.018494 572.427856,594.972046 
	C573.674133,593.218262 574.593628,591.510986 575.661133,589.601624 
	C575.885681,589.251038 575.962097,589.102478 576.359253,588.880859 
	C577.322205,587.849792 578.097168,586.954834 578.587097,585.924438 
	C589.584412,562.795532 589.509216,539.718994 577.851746,516.879822 
	C576.190247,513.624634 573.340088,510.976105 570.870605,507.800537 
	C570.308838,507.102875 569.916687,506.651489 569.554260,505.871338 
	C566.693481,503.117249 563.802856,500.691956 560.882568,498.218323 
	C560.852783,498.169922 560.752991,498.115601 560.634644,497.685974 
	C561.789978,496.068939 562.921448,494.079163 564.360413,493.824219 
	C573.808472,492.150055 583.321411,490.840271 592.816284,489.432404 
	C597.984497,488.666077 603.158813,487.940704 608.602356,487.249969 
	C609.237854,487.248779 609.601379,487.194458 610.325317,487.324646 
	C623.361328,487.487244 636.036926,487.478607 648.712341,487.430298 
	C650.821472,487.422272 652.929871,487.241455 655.305908,487.209259 
	C655.937378,487.251740 656.301636,487.225433 656.933472,487.463989 
	C658.163208,487.939453 659.116272,488.269592 660.088806,488.343445 
	C699.841919,491.362427 737.818481,501.024475 773.599365,518.803345 
	C782.508301,523.229980 791.267517,527.958191 800.281372,532.714233 
	C800.467224,532.880676 800.942932,533.031189 801.066101,533.327087 
	C802.480896,534.316650 803.772522,535.010376 805.223267,535.846680 
	C805.382385,535.989197 805.790039,536.117065 805.919800,536.424255 
	C813.069824,541.728943 820.090088,546.726379 827.252747,551.969421 
	C827.866577,552.511780 828.338013,552.808533 828.906738,553.419922 
	C830.368835,554.743530 831.733765,555.752563 833.260315,557.019653 
	C834.238586,557.875122 835.055237,558.472473 835.967651,559.389465 
	C838.071228,561.344543 840.079102,562.979980 842.282288,564.882935 
	C843.922119,566.467957 845.366699,567.785461 846.887817,569.427856 
	C848.274780,570.897522 849.585205,572.042236 851.054626,573.475708 
	C856.732727,579.885437 862.251770,586.006348 867.830200,592.474731 
	C869.137207,595.605835 868.101257,597.225098 865.625793,598.927063 
	C832.520691,621.687622 802.494019,647.916626 776.709229,678.817322 
	C742.603516,719.689697 717.269775,765.143738 705.323059,817.413757 
	C697.291016,852.556274 695.627625,887.961121 702.744629,923.459717 
	C711.602661,967.642517 729.598938,1008.123840 753.969238,1045.791992 
	C788.608704,1099.332275 833.787659,1142.834351 884.297424,1181.150024 
	C931.739380,1217.138550 983.063171,1246.649414 1036.613647,1272.449097 
	C1104.341309,1305.078979 1174.795166,1330.371338 1247.134033,1350.554321 
	C1289.653442,1362.417236 1332.564819,1372.649902 1376.006714,1380.557495 
	C1395.331177,1384.075195 1414.709229,1387.297363 1434.035034,1390.808105 
	C1435.272827,1391.032715 1436.268066,1392.591797 1437.052490,1393.554199 
	C1435.506958,1394.151367 1434.285156,1394.724487 1432.713623,1395.247925 
	C1430.358887,1396.304565 1428.354004,1397.410889 1426.040771,1398.530273 
	C1425.175903,1398.795654 1424.619019,1399.047974 1423.723877,1399.246826 
	C1422.039917,1399.961304 1420.694214,1400.729004 1419.192627,1401.532715 
	C1419.036865,1401.568604 1419.007812,1401.887085 1418.625977,1401.874390 
	C1411.483643,1405.867554 1404.723145,1409.873535 1397.576538,1413.966064 
	C1395.645630,1414.418457 1394.027710,1414.599609 1392.567383,1415.178345 
	C1378.026001,1420.940552 1363.572021,1426.928467 1348.969971,1432.531250 
	C1335.418579,1437.731079 1321.806519,1442.805542 1308.055298,1447.443115 
	C1295.135254,1451.800537 1282.013916,1455.565918 1268.953125,1459.498657 
	C1249.462524,1465.367798 1230.043701,1471.508911 1210.412720,1476.868530 
	C1193.903687,1481.375732 1177.150024,1484.996826 1160.476562,1488.889771 
	C1148.393677,1491.710938 1136.344360,1494.786255 1124.136719,1496.934692 
	C1108.321045,1499.718018 1092.366455,1501.716309 1076.465454,1504.009399 
	C1057.871582,1506.690552 1039.322632,1509.799072 1020.657532,1511.834717 
	C1004.874390,1513.556030 988.953003,1514.010986 972.757629,1514.821777 
	C970.394775,1514.080933 968.362793,1513.078491 966.340332,1513.097290 
	C960.716187,1513.149414 955.099365,1513.782349 949.473511,1513.906494 
	C930.225769,1514.331665 910.896301,1513.147705 891.375061,1517.008057 
	C880.644836,1516.667603 870.366760,1516.417603 860.100159,1515.927734 
	C849.600708,1515.426880 839.110779,1514.715698 828.619934,1514.046387 
	C824.210266,1513.765259 819.793091,1513.490112 815.406738,1512.977539 
	C804.744385,1511.731689 794.089050,1510.415527 783.448608,1508.995361 
	C777.026855,1508.138062 770.641479,1507.011230 764.233582,1506.045898 
	C757.156433,1504.979980 750.072388,1503.959717 742.835754,1502.615234 
	C740.760437,1500.908447 739.026306,1498.746094 736.891357,1498.224609 
	C720.821533,1494.299072 704.702271,1490.558716 688.524963,1487.104614 
	C685.129395,1486.379639 681.429565,1487.079590 677.869995,1487.122803 
z"/>
<path fill="#94674A" opacity="1.000000" stroke="none" 
	d="
M1437.376099,1393.530273 
	C1436.268066,1392.591797 1435.272827,1391.032715 1434.035034,1390.808105 
	C1414.709229,1387.297363 1395.331177,1384.075195 1376.006714,1380.557495 
	C1332.564819,1372.649902 1289.653442,1362.417236 1247.134033,1350.554321 
	C1174.795166,1330.371338 1104.341309,1305.078979 1036.613647,1272.449097 
	C983.063171,1246.649414 931.739380,1217.138550 884.297424,1181.150024 
	C833.787659,1142.834351 788.608704,1099.332275 753.969238,1045.791992 
	C729.598938,1008.123840 711.602661,967.642517 702.744629,923.459717 
	C695.627625,887.961121 697.291016,852.556274 705.323059,817.413757 
	C717.269775,765.143738 742.603516,719.689697 776.709229,678.817322 
	C802.494019,647.916626 832.520691,621.687622 865.625793,598.927063 
	C868.101257,597.225098 869.137207,595.605835 868.216919,592.457397 
	C870.777100,591.976379 873.333130,592.525208 875.184570,591.624939 
	C881.980713,588.320007 888.501770,584.455444 895.204346,580.950623 
	C901.944458,577.426208 908.704346,573.924011 915.585693,570.688904 
	C928.156189,564.779114 940.956665,559.342468 953.385620,553.154907 
	C958.613647,550.552307 963.141357,546.543030 967.987427,543.173157 
	C974.707764,544.649902 981.598206,545.601501 988.113281,547.711975 
	C1001.997192,552.209656 1015.819580,556.966248 1029.417480,562.258301 
	C1042.859497,567.489685 1056.300781,572.901978 1069.164917,579.381226 
	C1079.181152,584.426025 1088.576904,590.853455 1097.773193,597.340393 
	C1112.016479,607.387573 1126.198486,617.582275 1139.762939,628.513062 
	C1152.072754,638.432617 1163.744873,649.181641 1175.294800,659.995850 
	C1189.068726,672.892273 1202.657593,686.007751 1215.865723,699.480103 
	C1226.369873,710.194336 1236.192261,721.577698 1246.296387,732.683044 
	C1253.041626,740.096680 1259.940063,747.382202 1266.431519,755.013000 
	C1276.850464,767.260681 1286.984741,779.750427 1297.248291,792.130493 
	C1303.118042,799.210754 1309.076904,806.218628 1314.861816,813.367371 
	C1319.366943,818.934570 1323.776245,824.587036 1328.032593,830.346130 
	C1336.636963,841.987976 1345.186646,853.672058 1353.610107,865.445190 
	C1360.288452,874.779175 1366.715576,884.292542 1373.308105,893.688477 
	C1380.164429,903.460510 1387.277222,913.058411 1393.925415,922.968994 
	C1400.945679,933.434082 1407.549927,944.178162 1414.653320,955.323608 
	C1416.292603,959.203186 1417.168457,962.828247 1419.004150,965.875000 
	C1440.624634,1001.760254 1463.360962,1037.013184 1483.855103,1073.526245 
	C1506.560181,1113.978394 1527.552002,1155.407349 1548.681641,1196.721924 
	C1558.290283,1215.509521 1566.730957,1234.916992 1575.166504,1254.276367 
	C1584.785889,1276.353271 1593.809204,1298.689941 1603.111572,1321.295654 
	C1606.770508,1332.020142 1610.586426,1342.304810 1614.000366,1352.721191 
	C1617.556152,1363.570679 1617.280884,1374.979248 1607.893921,1381.942017 
	C1598.620361,1388.821045 1587.578735,1394.509033 1576.451172,1397.377075 
	C1564.127563,1400.553345 1550.843018,1400.337158 1537.947144,1400.844238 
	C1528.690063,1401.208252 1519.361328,1400.634277 1510.105957,1399.933350 
	C1499.054199,1399.096436 1488.070557,1397.274780 1477.013428,1396.614380 
	C1463.776978,1395.823853 1450.886841,1390.583008 1437.376099,1393.530273 
M957.291809,1023.812134 
	C968.883484,1023.123108 980.652283,1023.475891 992.031982,1021.540527 
	C1020.773682,1016.652466 1048.985962,1009.453491 1075.360840,996.587952 
	C1084.742432,992.011597 1093.888428,986.833313 1100.466187,978.180664 
	C1102.675781,975.274231 1103.550293,972.766907 1101.148560,969.713135 
	C1094.993774,961.887329 1089.356567,953.583679 1082.612305,946.305176 
	C1060.893921,922.866516 1036.023926,903.090576 1008.661194,886.730957 
	C997.055237,879.792053 984.409119,874.232788 971.649780,869.693420 
	C960.794739,865.831665 954.253479,870.056152 948.864075,880.120178 
	C941.786743,893.336243 940.250122,907.665527 940.210632,922.146423 
	C940.174011,935.575684 941.134155,949.020691 942.005310,962.436096 
	C943.193237,980.727356 945.998047,998.754089 952.495972,1016.013672 
	C953.490479,1018.655151 955.140625,1021.049744 957.291809,1023.812134 
M1096.924194,1171.583740 
	C1097.599365,1173.811768 1097.897583,1176.268311 1099.066650,1178.196899 
	C1100.036377,1179.796387 1101.976318,1181.762085 1103.582886,1181.852417 
	C1109.884521,1182.207153 1116.289185,1182.441528 1122.538086,1181.712646 
	C1145.906128,1178.986816 1168.658569,1173.418457 1190.674683,1165.153809 
	C1204.237305,1160.062744 1217.508179,1154.313477 1227.974121,1143.622437 
	C1231.623657,1139.894409 1231.913818,1136.553955 1228.802979,1132.707397 
	C1222.435181,1124.833496 1216.585693,1116.433228 1209.485352,1109.279541 
	C1190.687256,1090.340210 1169.945679,1073.625854 1146.859741,1060.199463 
	C1136.737183,1054.312378 1125.715576,1049.797729 1114.736816,1045.620239 
	C1107.960815,1043.041870 1100.286865,1045.489136 1098.147461,1050.103882 
	C1094.673584,1057.596802 1090.936890,1065.224976 1089.221313,1073.206665 
	C1087.358398,1081.873901 1087.182129,1091.010498 1087.185547,1099.942139 
	C1087.189087,1108.875732 1087.792114,1117.886597 1089.082153,1126.724854 
	C1091.235229,1141.474243 1094.145020,1156.113037 1096.924194,1171.583740 
M1174.698975,874.243713 
	C1176.718018,873.468628 1178.762817,872.754028 1180.751831,871.908508 
	C1192.868896,866.757629 1204.917969,861.535156 1214.078735,851.492554 
	C1216.855225,848.448853 1217.739258,845.624451 1214.867920,842.295715 
	C1206.431885,832.515381 1198.417969,822.325623 1189.452026,813.057251 
	C1173.296875,796.357117 1154.698486,782.527161 1134.759644,770.736450 
	C1124.812378,764.854187 1114.072876,760.016907 1103.190430,756.099121 
	C1093.500122,752.610474 1087.493896,756.892151 1082.707031,765.917542 
	C1075.330200,779.826355 1075.798218,794.881897 1075.231689,809.725525 
	C1074.885742,818.791626 1076.269409,827.931335 1076.992432,837.028809 
	C1078.327026,853.824219 1081.274292,870.320312 1087.078979,886.176941 
	C1087.687866,887.840271 1090.353027,889.833862 1092.059814,889.829773 
	C1100.689697,889.809021 1109.559448,890.309814 1117.897949,888.531250 
	C1136.727295,884.514893 1155.293823,879.266357 1174.698975,874.243713 
M1323.466187,995.062805 
	C1305.140259,977.017700 1285.078735,961.138794 1262.884033,948.171631 
	C1254.898438,943.506042 1246.107788,940.083374 1237.416260,936.804382 
	C1230.542236,934.210999 1223.281616,935.880920 1220.890991,941.033386 
	C1217.228638,948.926208 1213.159790,957.261108 1212.348511,965.704834 
	C1210.974731,980.004883 1211.103027,994.611572 1212.292480,1008.948975 
	C1213.425903,1022.611938 1215.753296,1036.357422 1219.329346,1049.587158 
	C1223.208130,1063.937256 1220.255005,1061.856445 1236.556763,1061.899292 
	C1237.221191,1061.901001 1237.890015,1061.860474 1238.549683,1061.780762 
	C1262.239868,1058.923462 1285.428223,1053.883057 1307.687866,1045.167969 
	C1319.148315,1040.680908 1330.433228,1035.850952 1339.209106,1026.546387 
	C1342.746460,1022.796082 1343.388306,1019.686462 1340.199341,1015.741821 
	C1334.772339,1009.029175 1329.364258,1002.301331 1323.466187,995.062805 
z"/>
<path fill="#512F23" opacity="1.000000" stroke="none" 
	d="
M1603.091675,1320.913696 
	C1593.809204,1298.689941 1584.785889,1276.353271 1575.166504,1254.276367 
	C1566.730957,1234.916992 1558.290283,1215.509521 1548.681641,1196.721924 
	C1527.552002,1155.407349 1506.560181,1113.978394 1483.855103,1073.526245 
	C1463.360962,1037.013184 1440.624634,1001.760254 1419.004150,965.875000 
	C1417.168457,962.828247 1416.292603,959.203186 1414.985352,955.453735 
	C1415.000000,914.739014 1415.112549,874.416931 1414.975220,834.095703 
	C1414.731079,762.387695 1414.266357,690.680359 1414.058472,618.972290 
	C1414.013672,603.523926 1414.798096,588.074341 1414.897339,572.623352 
	C1414.919067,569.254639 1413.656982,565.874329 1412.952515,562.506409 
	C1412.754150,561.557678 1412.161377,560.618225 1412.213623,559.700928 
	C1414.135498,526.018066 1403.150757,496.279480 1383.084717,469.998352 
	C1371.803833,455.223541 1357.330566,443.599915 1340.464966,434.990753 
	C1325.328613,427.264313 1309.532959,423.726868 1292.689209,423.956451 
	C1290.262329,423.989532 1287.825684,423.308502 1284.672852,422.598969 
	C1260.056519,422.151398 1236.161011,422.050079 1212.265503,422.015686 
	C1211.194214,422.014130 1210.122070,422.619812 1209.050415,422.942627 
	C1195.584351,422.960266 1182.114868,423.182892 1168.653076,422.954407 
	C1136.986938,422.416962 1105.321655,421.776184 1073.662354,420.935852 
	C1062.998169,420.652771 1052.343506,419.764557 1041.704102,418.908386 
	C1036.843262,418.517242 1033.928833,415.403534 1033.135254,410.679138 
	C1032.479858,406.777985 1032.300781,402.796875 1031.877319,397.944336 
	C1031.886353,390.911621 1032.048950,384.783417 1031.927856,378.660828 
	C1031.850586,374.759857 1031.352905,370.867157 1031.043701,366.970764 
	C1031.038330,356.312195 1031.131226,345.652496 1031.007446,334.995300 
	C1030.732178,311.285767 1030.398926,287.576630 1029.989136,263.869080 
	C1029.765503,250.922241 1029.208618,237.980530 1029.045532,225.033432 
	C1028.927490,215.649307 1032.699585,212.071625 1041.987061,212.004868 
	C1087.417114,211.678268 1132.847656,211.369583 1178.276978,210.962387 
	C1185.569458,210.897018 1192.857788,210.365067 1200.939453,210.331970 
	C1219.864624,210.720963 1237.998169,210.834564 1256.131958,210.898102 
	C1256.724121,210.900177 1257.317993,210.391846 1257.911011,210.121399 
	C1263.656738,210.093491 1269.402466,210.065598 1275.938965,210.326141 
	C1287.493408,210.743469 1298.256714,210.933395 1309.020508,210.961060 
	C1311.946533,210.968582 1314.874023,210.486877 1317.800781,210.229706 
	C1332.627563,210.150162 1347.454956,209.936554 1362.280884,210.015442 
	C1413.062134,210.285614 1463.842407,210.857254 1514.623779,210.948669 
	C1606.439331,211.113937 1698.255615,210.977432 1790.071167,211.139236 
	C1794.739136,211.147476 1799.635498,212.164154 1804.008789,213.815125 
	C1808.910156,215.665390 1810.674316,220.611710 1809.625122,225.760010 
	C1809.298706,227.362534 1809.045288,229.042603 1809.153809,230.660660 
	C1809.717651,239.070938 1810.910522,247.469284 1810.966797,255.877930 
	C1811.169922,286.201935 1811.067383,316.528717 1810.939697,346.853851 
	C1810.903076,355.555786 1810.363770,364.254944 1810.111938,372.957031 
	C1810.008423,376.535065 1810.133179,380.119965 1810.017822,383.697357 
	C1809.718750,392.974152 1808.845337,402.264496 1809.141479,411.519348 
	C1809.433350,420.644562 1807.498535,425.681885 1794.306641,425.833679 
	C1776.030518,426.044037 1757.743408,425.291901 1739.460815,424.958771 
	C1719.828735,424.601013 1704.864014,433.494354 1692.306396,447.954620 
	C1684.078369,457.429413 1677.477295,467.743073 1672.927002,479.362732 
	C1668.354614,491.039093 1664.152100,502.716187 1664.839966,515.725281 
	C1665.463623,527.521851 1665.677612,539.436462 1664.778076,551.200073 
	C1661.220337,597.722229 1663.916626,644.300354 1662.936768,690.838318 
	C1662.728882,700.715698 1662.065674,710.587708 1662.029663,720.463684 
	C1661.918091,751.034302 1662.145508,781.606506 1661.971558,812.176575 
	C1661.855713,832.540100 1661.279053,852.901001 1660.618408,874.058716 
	C1660.240845,886.567017 1660.153564,898.279602 1660.066284,909.992249 
	C1660.047119,925.320312 1660.113037,940.649109 1659.991455,955.976379 
	C1659.716187,990.669067 1659.366455,1025.361328 1659.012573,1060.053345 
	C1658.699585,1090.743774 1658.339844,1121.433716 1657.699829,1152.916504 
	C1657.282104,1162.172974 1657.165161,1170.636719 1657.048340,1179.100586 
	C1657.339844,1185.519287 1657.838257,1191.937256 1657.855835,1198.356812 
	C1657.869263,1203.294922 1657.046631,1208.232666 1656.999146,1213.174316 
	C1656.864380,1227.203979 1656.936279,1241.235352 1656.630859,1256.061523 
	C1656.478271,1267.500122 1656.621704,1278.143433 1656.765137,1288.786743 
	C1655.898560,1296.927002 1655.080566,1305.072876 1654.152100,1313.206177 
	C1653.161987,1321.878662 1652.085693,1330.541626 1651.004517,1339.203369 
	C1650.761108,1341.153564 1650.341675,1343.081665 1649.731201,1345.608887 
	C1646.761963,1345.430298 1643.765869,1345.176392 1641.416992,1343.810181 
	C1628.554199,1336.328613 1615.850220,1328.574219 1603.091675,1320.913696 
z"/>
<path fill="#512F23" opacity="1.000000" stroke="none" 
	d="
M1397.962646,1413.879395 
	C1404.723145,1409.873535 1411.483643,1405.867554 1418.638672,1402.233154 
	C1422.438965,1405.323242 1425.830444,1408.060181 1429.253052,1410.757690 
	C1446.953003,1424.708862 1464.370483,1439.041016 1482.457275,1452.471680 
	C1497.086792,1463.335083 1512.444946,1473.229858 1527.626953,1483.333252 
	C1545.060303,1494.935059 1562.704956,1506.219604 1580.116455,1517.853516 
	C1582.200317,1519.245972 1583.398926,1521.963257 1585.007812,1524.066528 
	C1582.194946,1529.304688 1579.716187,1534.757690 1576.510620,1539.743286 
	C1563.371094,1560.178223 1551.060425,1581.266235 1536.430054,1600.588257 
	C1522.255615,1619.308105 1505.971436,1636.493164 1489.927246,1653.712524 
	C1479.097534,1665.335205 1467.573608,1676.432861 1455.468506,1686.715698 
	C1438.898804,1700.791260 1421.897461,1714.442383 1404.299805,1727.197510 
	C1390.026367,1737.543213 1374.648560,1746.375854 1359.669678,1755.733765 
	C1350.310059,1761.580811 1340.981079,1767.527344 1331.277100,1772.759399 
	C1319.924561,1778.880249 1308.264282,1784.454346 1296.577637,1789.924072 
	C1287.050293,1794.383057 1277.404541,1798.639893 1267.602539,1802.449463 
	C1251.846924,1808.573242 1235.949951,1814.339478 1220.051147,1820.086670 
	C1212.027954,1822.986816 1203.980591,1825.928589 1195.750977,1828.128052 
	C1174.652100,1833.767334 1153.586304,1839.666382 1132.239624,1844.202271 
	C1112.790039,1848.334961 1093.043213,1851.211426 1073.326660,1853.903687 
	C1054.861328,1856.425049 1036.274536,1858.086182 1017.719360,1859.902832 
	C1010.795471,1860.580811 1003.813171,1860.772827 996.851624,1860.932861 
	C979.890381,1861.322998 962.907532,1862.194580 945.967041,1861.706177 
	C924.946594,1861.100098 903.947815,1859.491089 882.963257,1857.985718 
	C868.636597,1856.957886 854.327148,1855.570190 840.054932,1853.947876 
	C831.757751,1853.004639 823.534241,1851.364014 815.304626,1849.886841 
	C803.969666,1847.852173 792.573059,1846.054077 781.359985,1843.472168 
	C763.628479,1839.389160 745.912537,1835.148193 728.400391,1830.225464 
	C707.126099,1824.245117 685.954590,1817.839355 664.962097,1810.937744 
	C651.803101,1806.611694 638.940369,1801.308960 626.152893,1795.947876 
	C610.649475,1789.447876 595.157593,1782.853271 580.039917,1775.518188 
	C561.395813,1766.471924 542.733887,1757.325073 524.823853,1746.938477 
	C502.747681,1734.135742 481.222992,1720.339355 459.872040,1706.343628 
	C445.425507,1696.873657 431.472504,1686.605103 417.711914,1676.149902 
	C408.509979,1669.158569 400.003204,1661.247559 391.239899,1653.684814 
	C381.293945,1645.101440 371.849060,1636.065430 364.552307,1624.982910 
	C355.287720,1610.911865 348.428833,1596.154541 346.833313,1578.952393 
	C344.957489,1558.727783 351.623199,1542.027832 366.097076,1528.642456 
	C376.617584,1518.913086 389.858917,1513.819214 403.913391,1511.046631 
	C420.913788,1507.692993 438.026825,1508.290161 454.869598,1511.255371 
	C465.494141,1513.125854 476.011688,1516.572876 486.043671,1520.631592 
	C504.883911,1528.254028 523.305847,1536.905029 541.965698,1544.980713 
	C550.771729,1548.791626 559.725769,1552.260742 568.714355,1556.399170 
	C563.611694,1557.515747 558.396057,1558.038086 553.209473,1558.766968 
	C551.566467,1558.997803 550.000916,1559.779785 548.399963,1560.309570 
	C549.149658,1561.991211 549.477783,1564.166016 550.741638,1565.246094 
	C552.986694,1567.164917 555.892212,1568.285156 558.351013,1569.985840 
	C561.628357,1572.253052 564.742798,1574.755615 569.069946,1578.018799 
	C555.140320,1583.991211 546.944824,1593.970093 538.649658,1604.035645 
	C529.477234,1615.165649 524.871643,1627.619751 526.310486,1641.895264 
	C526.737305,1646.130249 528.728333,1650.544067 531.075012,1654.184692 
	C537.612061,1664.326050 556.659790,1663.639160 565.100769,1652.667236 
	C569.566589,1646.862183 574.229309,1641.147217 578.072083,1634.939087 
	C583.730042,1625.798462 592.014038,1619.863892 600.885437,1614.473267 
	C602.179810,1613.686768 603.742065,1613.341064 606.169373,1612.413208 
	C603.659058,1619.633301 601.317261,1625.639893 599.487122,1631.798462 
	C596.502563,1641.841675 593.467102,1651.846069 594.176453,1662.625854 
	C595.252747,1678.982056 609.677795,1683.752197 621.392883,1680.829468 
	C634.386597,1677.588013 643.046631,1668.713379 648.952087,1657.223511 
	C653.512512,1648.350830 656.747559,1638.786011 661.461670,1630.006836 
	C665.186218,1623.070435 669.646973,1616.307251 674.890259,1610.462524 
	C682.174744,1602.342529 687.866089,1602.325684 698.212402,1605.858887 
	C709.151184,1609.594604 720.324402,1612.791260 732.323608,1611.233032 
	C736.616516,1610.675415 739.233704,1609.656128 740.203857,1605.170898 
	C753.499634,1607.177368 766.375549,1609.231079 779.145020,1611.615967 
	C776.461426,1617.996094 776.831177,1618.433838 783.168640,1619.643799 
	C789.408630,1620.835083 795.952881,1621.412476 801.498230,1626.103516 
	C800.223877,1627.323242 799.405396,1628.361938 798.361694,1629.067383 
	C781.516846,1640.451416 773.750732,1657.415405 769.588196,1676.422241 
	C768.030701,1683.533813 768.967346,1690.630127 772.049072,1697.400757 
	C777.484436,1709.342285 795.330261,1712.690552 804.195679,1703.126709 
	C807.672974,1699.375244 811.102173,1695.317749 813.438416,1690.820557 
	C819.645874,1678.871216 828.832825,1669.557373 838.690796,1660.806763 
	C841.769531,1658.073853 845.586914,1656.172852 850.275635,1653.098022 
	C849.670837,1656.249268 849.461792,1657.684570 849.115417,1659.085938 
	C847.042358,1667.474487 844.170166,1675.755737 843.066833,1684.267578 
	C842.032532,1692.246460 841.402649,1700.802612 843.180481,1708.508179 
	C846.531189,1723.031372 863.343933,1729.936157 876.527649,1721.294678 
	C885.624023,1715.332153 891.925415,1706.513062 895.786377,1696.424561 
	C902.203491,1679.656494 908.661865,1662.846924 913.774353,1645.659790 
	C916.539001,1636.365234 920.908081,1631.756470 930.610840,1632.319946 
	C932.529785,1632.431519 934.520386,1631.604370 936.454041,1631.115356 
	C947.096008,1628.424927 957.684204,1625.497437 968.392395,1623.106445 
	C972.227844,1622.250000 975.938354,1621.879150 978.366211,1618.182129 
	C980.370422,1618.586548 982.010803,1619.043945 983.628601,1618.974365 
	C998.042053,1618.355103 1012.458984,1617.767578 1026.859253,1616.907959 
	C1034.773804,1616.435425 1042.796265,1616.137207 1050.527100,1614.565308 
	C1065.844849,1611.450806 1081.063599,1607.773682 1096.190552,1603.821167 
	C1107.976196,1600.741821 1119.715210,1597.332642 1131.203613,1593.297729 
	C1157.241089,1584.152710 1182.975830,1574.105225 1207.184448,1560.773682 
	C1228.698853,1548.926025 1250.062134,1536.711060 1270.776733,1523.533447 
	C1286.770020,1513.359009 1301.816528,1501.656860 1316.976074,1490.225464 
	C1326.858398,1482.773438 1336.426270,1474.857788 1345.699585,1466.657593 
	C1354.847900,1458.567871 1363.651733,1450.058960 1372.232422,1441.364746 
	C1381.044922,1432.435669 1389.404785,1423.059814 1397.962646,1413.879395 
z"/>
<path fill="#794B34" opacity="1.000000" stroke="none" 
	d="
M967.679077,542.885254 
	C963.141357,546.543030 958.613647,550.552307 953.385620,553.154907 
	C940.956665,559.342468 928.156189,564.779114 915.585693,570.688904 
	C908.704346,573.924011 901.944458,577.426208 895.204346,580.950623 
	C888.501770,584.455444 881.980713,588.320007 875.184570,591.624939 
	C873.333130,592.525208 870.777100,591.976379 868.157654,592.109985 
	C862.251770,586.006348 856.732727,579.885437 851.034546,573.118164 
	C849.507324,571.348816 848.159302,570.225891 846.811218,569.102966 
	C845.366699,567.785461 843.922119,566.467957 842.215698,564.569824 
	C839.926514,562.349365 837.899170,560.709595 835.871826,559.069824 
	C835.055237,558.472473 834.238586,557.875122 833.195984,556.690186 
	C831.583130,555.103516 830.196289,554.104370 828.809448,553.105286 
	C828.338013,552.808533 827.866577,552.511780 827.183105,551.645386 
	C819.910706,546.089478 812.850403,541.103271 805.790039,536.117065 
	C805.790039,536.117065 805.382385,535.989197 805.138000,535.534790 
	C803.576721,534.397339 802.259827,533.714294 800.942932,533.031189 
	C800.942932,533.031189 800.467224,532.880676 800.200073,532.402832 
	C799.078064,531.177002 798.333374,530.211365 797.351501,529.713806 
	C784.059143,522.977722 770.931885,515.870117 757.371399,509.719452 
	C735.656128,499.869965 712.683594,493.881958 689.210083,490.116272 
	C678.482117,488.395294 667.521118,488.126526 656.665833,487.199127 
	C656.301636,487.225433 655.937378,487.251740 655.011536,486.922424 
	C643.611755,486.075928 632.776733,485.358551 621.933960,485.212708 
	C617.953613,485.159149 613.955139,486.458130 609.964905,487.140137 
	C609.601379,487.194458 609.237854,487.248779 608.119568,487.155701 
	C589.801270,487.031921 572.619568,489.847168 555.292969,494.025208 
	C533.416016,480.809753 501.734558,486.274811 486.294067,510.560913 
	C484.464417,513.438660 482.479858,516.218018 480.147461,519.037231 
	C470.818726,523.225769 461.861420,527.322205 453.030762,531.675659 
	C450.473236,532.936462 448.279053,534.934387 445.918274,536.594360 
	C445.918274,536.594360 445.522949,536.896667 444.917542,536.970825 
	C436.459808,541.603882 428.446259,545.911743 420.813019,550.811951 
	C415.892670,553.970581 411.530457,557.998718 406.918091,561.637146 
	C406.918091,561.637146 406.593597,561.948425 406.019714,562.021667 
	C403.627747,563.226990 401.760529,564.288025 400.000885,565.504700 
	C394.989777,568.969604 390.022491,572.497864 384.724976,575.873291 
	C379.694672,571.095032 375.290497,566.061951 370.185608,561.885315 
	C362.768280,555.816772 355.446503,549.154907 346.986664,544.957581 
	C336.352203,539.681335 324.753540,536.138489 313.285370,532.840881 
	C307.529572,531.185913 301.142029,531.718506 295.038361,531.287537 
	C292.784729,531.128357 290.525848,531.042969 288.269379,530.923889 
	C288.914337,525.162781 289.163361,519.323181 290.287384,513.657104 
	C292.571869,502.141602 294.566620,490.479706 298.082184,479.319550 
	C302.602264,464.970367 307.575989,450.613281 314.053162,437.072266 
	C321.026093,422.494843 329.540619,408.589325 338.199768,394.907898 
	C343.618286,386.346680 350.321075,378.552032 356.859406,370.758881 
	C363.343628,363.030182 369.853363,355.203583 377.238342,348.379089 
	C387.222229,339.152893 397.742371,330.430115 408.610077,322.259735 
	C418.629547,314.727112 429.123016,307.714508 439.945251,301.393219 
	C449.490234,295.817963 459.766083,291.490021 469.739685,286.653564 
	C483.471405,279.994720 497.754120,275.059906 512.716614,271.814972 
	C525.114929,269.126160 537.156067,264.625061 549.621582,262.456482 
	C563.384888,260.062134 577.438599,259.261871 591.391174,258.062042 
	C598.482056,257.452271 605.637634,257.131317 612.747864,257.312439 
	C625.997009,257.649994 639.308044,257.788574 652.455261,259.251038 
	C664.625916,260.604889 676.664062,263.355957 688.671448,265.910492 
	C699.358765,268.184143 710.167175,270.310974 720.486450,273.793701 
	C736.102295,279.064087 751.629822,284.809418 766.655273,291.555023 
	C781.048401,298.016785 795.085571,305.451904 808.655212,313.510010 
	C819.467407,319.930634 829.857605,327.313965 839.508728,335.378571 
	C854.099854,347.571167 868.818542,359.857391 881.750061,373.720428 
	C894.628357,387.526520 905.721680,403.066833 916.957642,418.318298 
	C930.796448,437.102905 940.843750,458.121338 949.932495,479.474091 
	C954.691467,490.654480 957.823975,502.575348 961.083923,514.330200 
	C963.660095,523.619263 965.309631,533.165405 967.679077,542.885254 
z"/>
<path fill="#794B34" opacity="1.000000" stroke="none" 
	d="
M1585.341675,1524.139893 
	C1583.398926,1521.963257 1582.200317,1519.245972 1580.116455,1517.853516 
	C1562.704956,1506.219604 1545.060303,1494.935059 1527.626953,1483.333252 
	C1512.444946,1473.229858 1497.086792,1463.335083 1482.457275,1452.471680 
	C1464.370483,1439.041016 1446.953003,1424.708862 1429.253052,1410.757690 
	C1425.830444,1408.060181 1422.438965,1405.323242 1419.020508,1402.245850 
	C1419.007812,1401.887085 1419.036865,1401.568604 1419.562988,1401.654663 
	C1421.413452,1400.927246 1422.737915,1400.113770 1424.062256,1399.300171 
	C1424.619019,1399.047974 1425.175903,1398.795654 1426.427979,1398.641357 
	C1429.103271,1397.592163 1431.083252,1396.444824 1433.063232,1395.297607 
	C1434.285156,1394.724487 1435.506958,1394.151367 1437.052490,1393.554199 
	C1450.886841,1390.583008 1463.776978,1395.823853 1477.013428,1396.614380 
	C1488.070557,1397.274780 1499.054199,1399.096436 1510.105957,1399.933350 
	C1519.361328,1400.634277 1528.690063,1401.208252 1537.947144,1400.844238 
	C1550.843018,1400.337158 1564.127563,1400.553345 1576.451172,1397.377075 
	C1587.578735,1394.509033 1598.620361,1388.821045 1607.893921,1381.942017 
	C1617.280884,1374.979248 1617.556152,1363.570679 1614.000366,1352.721191 
	C1610.586426,1342.304810 1606.770508,1332.020142 1603.111572,1321.295654 
	C1615.850220,1328.574219 1628.554199,1336.328613 1641.416992,1343.810181 
	C1643.765869,1345.176392 1646.761963,1345.430298 1649.773682,1346.014893 
	C1657.002686,1350.295410 1663.929932,1354.739380 1670.828979,1359.226685 
	C1682.308716,1366.693604 1693.691040,1374.313965 1705.262695,1381.635376 
	C1716.146362,1388.521729 1727.240234,1395.075195 1738.207275,1401.831055 
	C1747.031982,1407.267334 1755.772095,1412.841553 1764.608521,1418.258423 
	C1778.412109,1426.719971 1792.320679,1435.011230 1806.076050,1443.549561 
	C1813.718506,1448.293335 1821.092285,1453.467651 1828.676147,1458.308594 
	C1835.589233,1462.721191 1842.474731,1467.211060 1849.635986,1471.192749 
	C1860.981567,1477.500977 1869.170776,1486.355103 1872.452026,1499.011475 
	C1876.058472,1512.922852 1867.274902,1528.015747 1856.760864,1534.705078 
	C1847.915649,1540.332886 1838.424194,1544.797607 1828.303467,1546.573853 
	C1819.708008,1548.082397 1810.656006,1546.990601 1801.806030,1547.047241 
	C1800.692383,1547.054443 1799.578613,1547.048340 1798.969116,1547.048340 
	C1798.352295,1554.144043 1798.287354,1560.874634 1797.103394,1567.402222 
	C1793.362183,1588.029785 1773.538940,1601.437744 1753.596924,1602.831787 
	C1739.771973,1603.798096 1726.929199,1601.002441 1714.509277,1594.815308 
	C1699.295410,1587.236084 1683.447388,1580.895752 1668.427979,1572.969238 
	C1652.233887,1564.422852 1636.695679,1554.636475 1620.841431,1545.442627 
	C1613.943359,1541.442627 1606.898682,1537.691650 1600.056030,1533.601318 
	C1595.146240,1530.666382 1590.460938,1527.356079 1585.341675,1524.139893 
z"/>
<path fill="#211B18" opacity="1.000000" stroke="none" 
	d="
M287.822144,530.945068 
	C290.525848,531.042969 292.784729,531.128357 295.038361,531.287537 
	C301.142029,531.718506 307.529572,531.185913 313.285370,532.840881 
	C324.753540,536.138489 336.352203,539.681335 346.986664,544.957581 
	C355.446503,549.154907 362.768280,555.816772 370.185608,561.885315 
	C375.290497,566.061951 379.694672,571.095032 384.750488,576.195801 
	C385.798523,577.859314 386.508087,579.072327 387.217651,580.285278 
	C388.083496,581.662476 388.949371,583.039673 389.830658,585.108826 
	C400.185608,605.721069 401.385864,625.753601 390.607361,645.944824 
	C389.373199,648.256714 388.223602,650.613770 387.034790,652.949890 
	C386.946350,653.092041 386.857849,653.234131 386.309448,653.645020 
	C385.250000,654.932434 384.650513,655.951111 384.051025,656.969788 
	C384.051025,656.969788 383.786255,657.387573 383.314240,657.631958 
	C381.572968,659.565552 380.303711,661.254700 379.034424,662.943848 
	C377.476166,664.475342 375.917908,666.006836 373.797485,667.744019 
	C372.428223,668.817810 371.621063,669.685913 370.813843,670.553955 
	C370.362305,670.941406 369.910797,671.328857 368.868073,671.873779 
	C352.143524,683.019958 335.716400,693.317688 315.429688,694.589844 
	C315.190430,694.604858 314.977020,695.032410 314.751526,695.267395 
	C314.125641,695.319336 313.499756,695.371216 312.366089,695.082764 
	C308.865448,694.241333 305.872528,693.740173 302.879639,693.239014 
	C302.447174,693.183777 302.014679,693.128601 301.071350,692.751221 
	C299.968628,692.408691 299.376709,692.388428 298.784821,692.368164 
	C297.229889,692.501587 295.674988,692.635132 293.498596,692.936523 
	C292.671265,693.170105 292.465393,693.235901 292.259552,693.301636 
	C287.645325,692.301453 282.909760,691.677429 278.438110,690.235229 
	C260.223846,684.360657 241.770309,679.036682 224.028336,671.949341 
	C209.836578,666.280090 196.174072,659.228760 184.081757,649.259155 
	C170.364517,637.950012 162.857742,624.224365 165.205566,606.534668 
	C165.952988,600.903259 169.899094,595.441162 173.217422,590.458313 
	C180.526749,579.482239 191.063675,571.986511 202.016266,564.940369 
	C218.850052,554.110657 237.199997,546.513306 255.849564,539.712402 
	C266.062958,535.987976 276.847748,533.830444 287.822144,530.945068 
z"/>
<path fill="#F1B441" opacity="1.000000" stroke="none" 
	d="
M739.783997,1605.218140 
	C739.233704,1609.656128 736.616516,1610.675415 732.323608,1611.233032 
	C720.324402,1612.791260 709.151184,1609.594604 698.212402,1605.858887 
	C687.866089,1602.325684 682.174744,1602.342529 674.890259,1610.462524 
	C669.646973,1616.307251 665.186218,1623.070435 661.461670,1630.006836 
	C656.747559,1638.786011 653.512512,1648.350830 648.952087,1657.223511 
	C643.046631,1668.713379 634.386597,1677.588013 621.392883,1680.829468 
	C609.677795,1683.752197 595.252747,1678.982056 594.176453,1662.625854 
	C593.467102,1651.846069 596.502563,1641.841675 599.487122,1631.798462 
	C601.317261,1625.639893 603.659058,1619.633301 606.169373,1612.413208 
	C603.742065,1613.341064 602.179810,1613.686768 600.885437,1614.473267 
	C592.014038,1619.863892 583.730042,1625.798462 578.072083,1634.939087 
	C574.229309,1641.147217 569.566589,1646.862183 565.100769,1652.667236 
	C556.659790,1663.639160 537.612061,1664.326050 531.075012,1654.184692 
	C528.728333,1650.544067 526.737305,1646.130249 526.310486,1641.895264 
	C524.871643,1627.619751 529.477234,1615.165649 538.649658,1604.035645 
	C546.944824,1593.970093 555.140320,1583.991211 569.069946,1578.018799 
	C564.742798,1574.755615 561.628357,1572.253052 558.351013,1569.985840 
	C555.892212,1568.285156 552.986694,1567.164917 550.741638,1565.246094 
	C549.477783,1564.166016 549.149658,1561.991211 548.399963,1560.309570 
	C550.000916,1559.779785 551.566467,1558.997803 553.209473,1558.766968 
	C558.396057,1558.038086 563.611694,1557.515747 569.041992,1556.596680 
	C570.290161,1555.851685 571.285767,1555.140625 572.339172,1555.041138 
	C579.236389,1554.389893 586.150574,1553.919556 593.050964,1553.298584 
	C608.690369,1551.891235 624.330505,1550.487549 639.958496,1548.961548 
	C645.491028,1548.421265 645.499695,1542.865601 647.651733,1539.485962 
	C651.976440,1532.694580 655.585449,1525.447388 660.134644,1518.250732 
	C679.225647,1524.033691 697.671814,1529.954224 716.063721,1536.248291 
	C711.003784,1544.890137 706.182678,1553.278687 700.906982,1561.370972 
	C698.597778,1564.912842 699.237854,1567.201660 702.118835,1569.754639 
	C704.946045,1572.259888 707.662415,1574.922485 710.184875,1577.733521 
	C719.218323,1587.800415 727.830566,1598.302002 739.783997,1605.218140 
z"/>
<path fill="#E49B47" opacity="1.000000" stroke="none" 
	d="
M716.117920,1535.874634 
	C697.671814,1529.954224 679.225647,1524.033691 660.421326,1518.051270 
	C663.284546,1511.999390 666.382141,1505.937988 669.769043,1500.042969 
	C672.188293,1495.832153 674.995789,1491.844604 677.750000,1487.440063 
	C681.429565,1487.079590 685.129395,1486.379639 688.524963,1487.104614 
	C704.702271,1490.558716 720.821533,1494.299072 736.891357,1498.224609 
	C739.026306,1498.746094 740.760437,1500.908447 742.490479,1502.691895 
	C733.573120,1514.006836 724.845520,1524.940674 716.117920,1535.874634 
z"/>
<path fill="#434343" opacity="1.000000" stroke="none" 
	d="
M1209.512451,422.989960 
	C1210.122070,422.619812 1211.194214,422.014130 1212.265503,422.015686 
	C1236.161011,422.050079 1260.056519,422.151398 1284.273926,422.386292 
	C1259.722046,422.700836 1234.848389,422.869049 1209.512451,422.989960 
z"/>
<path fill="#653333" opacity="1.000000" stroke="none" 
	d="
M1257.452026,210.078033 
	C1257.317993,210.391846 1256.724121,210.900177 1256.131958,210.898102 
	C1237.998169,210.834564 1219.864624,210.720963 1201.412354,210.368637 
	C1219.726807,210.092972 1238.359863,210.063812 1257.452026,210.078033 
z"/>
<path fill="#653333" opacity="1.000000" stroke="none" 
	d="
M1317.354492,210.165482 
	C1314.874023,210.486877 1311.946533,210.968582 1309.020508,210.961060 
	C1298.256714,210.933395 1287.493408,210.743469 1276.411377,210.367538 
	C1289.697998,210.114075 1303.303223,210.107666 1317.354492,210.165482 
z"/>
<path fill="#7E0000" opacity="1.000000" stroke="none" 
	d="
M1660.372803,909.707825 
	C1660.153564,898.279602 1660.240845,886.567017 1660.547119,874.536377 
	C1660.737061,885.953430 1660.708130,897.688416 1660.372803,909.707825 
z"/>
<path fill="#7E0000" opacity="1.000000" stroke="none" 
	d="
M1656.802246,1288.338745 
	C1656.621704,1278.143433 1656.478271,1267.500122 1656.550537,1256.537720 
	C1656.790405,1266.776001 1656.814819,1277.333374 1656.802246,1288.338745 
z"/>
<path fill="#241D1A" opacity="1.000000" stroke="none" 
	d="
M1031.017578,367.441406 
	C1031.352905,370.867157 1031.850586,374.759857 1031.927856,378.660828 
	C1032.048950,384.783417 1031.886353,390.911621 1031.802734,397.495361 
	C1031.502686,391.739655 1031.187378,385.527649 1031.005737,379.311768 
	C1030.894897,375.514954 1030.989136,371.712128 1031.017578,367.441406 
z"/>
<path fill="#4F3224" opacity="1.000000" stroke="none" 
	d="
M1657.343140,1178.791748 
	C1657.165161,1170.636719 1657.282104,1162.172974 1657.642334,1153.386108 
	C1657.803223,1161.536377 1657.720703,1170.009644 1657.343140,1178.791748 
z"/>
<path fill="#94674A" opacity="1.000000" stroke="none" 
	d="
M292.192505,693.518921 
	C292.465393,693.235901 292.671265,693.170105 293.199646,693.075989 
	C293.205688,693.409424 292.889282,693.771179 292.369232,694.161133 
	C292.165588,694.189270 292.125427,693.736267 292.192505,693.518921 
z"/>
<path fill="#000000" opacity="1.000000" stroke="none" 
	d="
M1397.576660,1413.966187 
	C1389.404785,1423.059814 1381.044922,1432.435669 1372.232422,1441.364746 
	C1363.651733,1450.058960 1354.847900,1458.567871 1345.699585,1466.657593 
	C1336.426270,1474.857788 1326.858398,1482.773438 1316.976074,1490.225464 
	C1301.816528,1501.656860 1286.770020,1513.359009 1270.776733,1523.533447 
	C1250.062134,1536.711060 1228.698853,1548.926025 1207.184448,1560.773682 
	C1182.975830,1574.105225 1157.241089,1584.152710 1131.203613,1593.297729 
	C1119.715210,1597.332642 1107.976196,1600.741821 1096.190552,1603.821167 
	C1081.063599,1607.773682 1065.844849,1611.450806 1050.527100,1614.565308 
	C1042.796265,1616.137207 1034.773804,1616.435425 1026.859253,1616.907959 
	C1012.458984,1617.767578 998.042053,1618.355103 983.628601,1618.974365 
	C982.010803,1619.043945 980.370422,1618.586548 978.357971,1617.816895 
	C976.270325,1612.580322 971.655701,1613.042358 968.111328,1611.383301 
	C957.230347,1606.290283 946.605835,1600.649414 936.088257,1595.326050 
	C937.908875,1589.867676 939.258057,1585.087280 941.088501,1580.499023 
	C944.227112,1572.631958 947.666565,1564.884888 951.273682,1556.863037 
	C955.426086,1549.280640 959.314514,1541.938354 963.133850,1534.560181 
	C966.493652,1528.069702 969.776184,1521.539185 973.092834,1515.026367 
	C988.953003,1514.010986 1004.874390,1513.556030 1020.657532,1511.834717 
	C1039.322632,1509.799072 1057.871582,1506.690552 1076.465454,1504.009399 
	C1092.366455,1501.716309 1108.321045,1499.718018 1124.136719,1496.934692 
	C1136.344360,1494.786255 1148.393677,1491.710938 1160.476562,1488.889771 
	C1177.150024,1484.996826 1193.903687,1481.375732 1210.412720,1476.868530 
	C1230.043701,1471.508911 1249.462524,1465.367798 1268.953125,1459.498657 
	C1282.013916,1455.565918 1295.135254,1451.800537 1308.055298,1447.443115 
	C1321.806519,1442.805542 1335.418579,1437.731079 1348.969971,1432.531250 
	C1363.572021,1426.928467 1378.026001,1420.940552 1392.567383,1415.178345 
	C1394.027710,1414.599609 1395.645630,1414.418457 1397.576660,1413.966187 
z"/>
<path fill="#000000" opacity="1.000000" stroke="none" 
	d="
M716.063721,1536.248291 
	C724.845520,1524.940674 733.573120,1514.006836 742.646057,1502.996216 
	C750.072388,1503.959717 757.156433,1504.979980 764.233582,1506.045898 
	C770.641479,1507.011230 777.026855,1508.138062 783.448608,1508.995361 
	C794.089050,1510.415527 804.744385,1511.731689 815.406738,1512.977539 
	C819.793091,1513.490112 824.210266,1513.765259 828.619934,1514.046387 
	C839.110779,1514.715698 849.600708,1515.426880 860.100159,1515.927734 
	C870.366760,1516.417603 880.644836,1516.667603 891.658997,1517.302002 
	C894.594910,1517.843140 896.789734,1518.105103 898.629211,1518.324585 
	C894.056152,1529.135986 889.629272,1539.601685 885.073792,1550.443848 
	C880.696960,1562.973877 876.448608,1575.127686 872.005188,1587.839722 
	C865.965332,1589.861084 859.325745,1592.270996 852.569275,1594.289795 
	C846.328796,1596.154419 840.021667,1597.900269 833.636353,1599.147949 
	C826.842407,1600.475342 819.917114,1601.122437 813.059509,1602.136597 
	C810.705994,1602.484863 808.340088,1602.889771 806.054871,1603.534668 
	C797.104248,1606.060547 788.183472,1608.692383 779.251526,1611.284912 
	C766.375549,1609.231079 753.499634,1607.177368 740.203857,1605.170898 
	C727.830566,1598.302002 719.218323,1587.800415 710.184875,1577.733521 
	C707.662415,1574.922485 704.946045,1572.259888 702.118835,1569.754639 
	C699.237854,1567.201660 698.597778,1564.912842 700.906982,1561.370972 
	C706.182678,1553.278687 711.003784,1544.890137 716.063721,1536.248291 
z"/>
<path fill="#241D1A" opacity="1.000000" stroke="none" 
	d="
M480.567078,519.042969 
	C482.479858,516.218018 484.464417,513.438660 486.294067,510.560913 
	C501.734558,486.274811 533.416016,480.809753 555.425537,494.347168 
	C557.515808,495.856293 559.134399,496.985962 560.752991,498.115601 
	C560.752991,498.115601 560.852783,498.169922 560.985718,498.526825 
	C563.920654,501.322540 566.722595,503.761322 569.524475,506.200134 
	C569.916687,506.651489 570.308838,507.102875 570.863098,508.146576 
	C571.353455,509.313507 571.642273,509.915222 572.015808,510.458679 
	C583.065918,526.534424 587.493591,544.265930 583.852600,563.437988 
	C582.202820,572.124634 578.700439,580.459534 576.038513,588.953979 
	C575.962097,589.102478 575.885681,589.251038 575.354858,589.688232 
	C573.967407,591.657410 573.034241,593.337952 572.101135,595.018494 
	C572.101135,595.018494 571.840759,595.431702 571.369385,595.682983 
	C569.960449,597.290283 569.022888,598.646362 568.085266,600.002380 
	C566.212646,601.877991 564.339966,603.753540 561.869751,605.819214 
	C559.462769,607.535706 557.653320,609.062134 555.843872,610.588501 
	C555.843872,610.588501 555.439331,610.866943 554.933838,610.914551 
	C553.878052,611.445618 553.327759,611.929077 552.777466,612.412598 
	C552.428162,612.626831 552.078857,612.841125 551.075012,613.109741 
	C542.738770,616.455688 534.794189,619.176575 526.380371,617.997498 
	C519.447449,617.025940 512.675232,614.907288 505.831757,613.296997 
	C505.460724,613.129211 505.089722,612.961365 504.383667,612.336060 
	C503.356628,611.622803 502.664551,611.367065 501.972504,611.111389 
	C501.972504,611.111389 501.541290,610.902710 501.274902,610.457153 
	C499.361786,609.013611 497.715088,608.015686 496.068390,607.017822 
	C495.594879,606.651978 495.121368,606.286072 494.404053,605.402466 
	C492.903076,603.868896 491.645874,602.853027 490.388672,601.837219 
	C489.372406,600.714966 488.356140,599.592651 487.162842,597.860229 
	C485.179382,594.761841 483.373047,592.273560 481.566681,589.785278 
	C481.464752,589.642029 481.362823,589.498718 481.180237,588.785645 
	C480.067993,586.382629 479.036438,584.549377 478.004883,582.716064 
	C477.706940,582.046326 477.408966,581.376587 477.092957,579.979004 
	C475.783600,575.189575 474.492310,571.127869 473.201019,567.066223 
	C473.099152,566.627563 472.997284,566.188843 473.011108,564.964417 
	C473.011719,557.415955 472.896606,550.653259 472.781555,543.890564 
	C472.835754,543.452820 472.889954,543.015015 473.321503,542.026855 
	C474.754181,536.970886 475.809509,532.465393 476.864807,527.959839 
	C477.104584,527.286621 477.344330,526.613403 478.037750,525.465942 
	C479.183289,523.008789 479.875183,521.025879 480.567078,519.042969 
z"/>
<path fill="#E49C47" opacity="1.000000" stroke="none" 
	d="
M885.202393,1550.067505 
	C889.629272,1539.601685 894.056152,1529.135986 898.629211,1518.324585 
	C896.789734,1518.105103 894.594910,1517.843140 892.116211,1517.287109 
	C910.896301,1513.147705 930.225769,1514.331665 949.473511,1513.906494 
	C955.099365,1513.782349 960.716187,1513.149414 966.340332,1513.097290 
	C968.362793,1513.078491 970.394775,1514.080933 972.757629,1514.821777 
	C969.776184,1521.539185 966.493652,1528.069702 963.133850,1534.560181 
	C959.314514,1541.938354 955.426086,1549.280640 950.986938,1556.597656 
	C949.414124,1556.046753 948.448975,1555.160889 947.425903,1555.087891 
	C940.974792,1554.628052 934.513306,1554.287964 928.050537,1554.023926 
	C918.263367,1553.623901 908.454529,1553.566284 898.690857,1552.863525 
	C894.151123,1552.536865 889.695923,1551.036133 885.202393,1550.067505 
z"/>
<path fill="#94674A" opacity="1.000000" stroke="none" 
	d="
M656.933472,487.463989 
	C667.521118,488.126526 678.482117,488.395294 689.210083,490.116272 
	C712.683594,493.881958 735.656128,499.869965 757.371399,509.719452 
	C770.931885,515.870117 784.059143,522.977722 797.351501,529.713806 
	C798.333374,530.211365 799.078064,531.177002 800.014282,532.236450 
	C791.267517,527.958191 782.508301,523.229980 773.599365,518.803345 
	C737.818481,501.024475 699.841919,491.362427 660.088806,488.343445 
	C659.116272,488.269592 658.163208,487.939453 656.933472,487.463989 
z"/>
<path fill="#94674A" opacity="1.000000" stroke="none" 
	d="
M576.359253,588.880859 
	C578.700439,580.459534 582.202820,572.124634 583.852600,563.437988 
	C587.493591,544.265930 583.065918,526.534424 572.015808,510.458679 
	C571.642273,509.915222 571.353455,509.313507 571.032593,508.392883 
	C573.340088,510.976105 576.190247,513.624634 577.851746,516.879822 
	C589.509216,539.718994 589.584412,562.795532 578.587097,585.924438 
	C578.097168,586.954834 577.322205,587.849792 576.359253,588.880859 
z"/>
<path fill="#94674A" opacity="1.000000" stroke="none" 
	d="
M387.357910,652.894348 
	C388.223602,650.613770 389.373199,648.256714 390.607361,645.944824 
	C401.385864,625.753601 400.185608,605.721069 389.926941,585.443665 
	C390.715057,585.739624 391.620575,586.272400 392.100494,587.063354 
	C403.638336,606.079834 401.668915,635.090393 387.357910,652.894348 
z"/>
<path fill="#94674A" opacity="1.000000" stroke="none" 
	d="
M560.634644,497.685974 
	C559.134399,496.985962 557.515808,495.856293 555.764648,494.404724 
	C572.619568,489.847168 589.801270,487.031921 607.847595,487.102539 
	C603.158813,487.940704 597.984497,488.666077 592.816284,489.432404 
	C583.321411,490.840271 573.808472,492.150055 564.360413,493.824219 
	C562.921448,494.079163 561.789978,496.068939 560.634644,497.685974 
z"/>
<path fill="#94674A" opacity="1.000000" stroke="none" 
	d="
M315.114319,695.459717 
	C314.977020,695.032410 315.190430,694.604858 315.429688,694.589844 
	C335.716400,693.317688 352.143524,683.019958 368.620422,672.038696 
	C365.292236,674.987793 361.993103,678.680847 357.875214,680.722534 
	C347.680145,685.777588 337.215576,690.343079 326.629944,694.524780 
	C323.285767,695.845825 319.215240,695.328186 315.114319,695.459717 
z"/>
<path fill="#94674A" opacity="1.000000" stroke="none" 
	d="
M610.325317,487.324646 
	C613.955139,486.458130 617.953613,485.159149 621.933960,485.212708 
	C632.776733,485.358551 643.611755,486.075928 654.744263,486.853638 
	C652.929871,487.241455 650.821472,487.422272 648.712341,487.430298 
	C636.036926,487.478607 623.361328,487.487244 610.325317,487.324646 
z"/>
<path fill="#94674A" opacity="1.000000" stroke="none" 
	d="
M407.254700,561.616394 
	C411.530457,557.998718 415.892670,553.970581 420.813019,550.811951 
	C428.446259,545.911743 436.459808,541.603882 444.676849,537.033936 
	C440.196686,540.173157 435.339691,543.304932 430.509705,546.477844 
	C422.860718,551.502625 415.229828,556.554993 407.254700,561.616394 
z"/>
<path fill="#94674A" opacity="1.000000" stroke="none" 
	d="
M505.941101,613.610840 
	C512.675232,614.907288 519.447449,617.025940 526.380371,617.997498 
	C534.794189,619.176575 542.738770,616.455688 550.788330,613.222412 
	C546.827271,615.107910 542.650513,617.603149 538.139465,618.630737 
	C526.958435,621.177734 516.080994,620.023743 505.941101,613.610840 
z"/>
<path fill="#94674A" opacity="1.000000" stroke="none" 
	d="
M480.147430,519.037231 
	C479.875183,521.025879 479.183289,523.008789 478.200500,525.147095 
	C477.132690,521.845825 475.093750,522.400330 472.725861,523.590332 
	C464.037720,527.956421 455.325409,532.274292 446.270203,536.602295 
	C448.279053,534.934387 450.473236,532.936462 453.030762,531.675659 
	C461.861420,527.322205 470.818726,523.225769 480.147430,519.037231 
z"/>
<path fill="#94674A" opacity="1.000000" stroke="none" 
	d="
M387.333130,579.891113 
	C386.508087,579.072327 385.798523,577.859314 385.063446,576.323792 
	C390.022491,572.497864 394.989777,568.969604 400.000885,565.504700 
	C401.760529,564.288025 403.627747,563.226990 405.806763,562.093872 
	C400.877380,566.467712 395.525787,570.771973 390.341034,575.268494 
	C389.093048,576.350769 388.397980,578.070496 387.333130,579.891113 
z"/>
<path fill="#94674A" opacity="1.000000" stroke="none" 
	d="
M805.919800,536.424255 
	C812.850403,541.103271 819.910706,546.089478 827.040710,551.399780 
	C820.090088,546.726379 813.069824,541.728943 805.919800,536.424255 
z"/>
<path fill="#94674A" opacity="1.000000" stroke="none" 
	d="
M472.473206,544.086548 
	C472.896606,550.653259 473.011719,557.415955 472.973083,564.628540 
	C472.601166,558.146484 472.383026,551.214478 472.473206,544.086548 
z"/>
<path fill="#94674A" opacity="1.000000" stroke="none" 
	d="
M476.550110,528.075806 
	C475.809509,532.465393 474.754181,536.970886 473.402679,541.705811 
	C474.149475,537.354065 475.192444,532.772888 476.550110,528.075806 
z"/>
<path fill="#94674A" opacity="1.000000" stroke="none" 
	d="
M569.554260,505.871307 
	C566.722595,503.761322 563.920654,501.322540 561.015503,498.575195 
	C563.802856,500.691956 566.693481,503.117249 569.554260,505.871307 
z"/>
<path fill="#94674A" opacity="1.000000" stroke="none" 
	d="
M472.963989,567.294556 
	C474.492310,571.127869 475.783600,575.189575 476.995392,579.625244 
	C475.519592,575.840515 474.123291,571.681763 472.963989,567.294556 
z"/>
<path fill="#94674A" opacity="1.000000" stroke="none" 
	d="
M481.495850,590.125916 
	C483.373047,592.273560 485.179382,594.761841 486.981995,597.591980 
	C485.127136,595.444763 483.276062,592.955627 481.495850,590.125916 
z"/>
<path fill="#94674A" opacity="1.000000" stroke="none" 
	d="
M303.069702,693.529053 
	C305.872528,693.740173 308.865448,694.241333 312.055542,695.023560 
	C309.255096,694.809387 306.257446,694.314270 303.069702,693.529053 
z"/>
<path fill="#94674A" opacity="1.000000" stroke="none" 
	d="
M835.967651,559.389465 
	C837.899170,560.709595 839.926514,562.349365 842.020386,564.302246 
	C840.079102,562.979980 838.071228,561.344543 835.967651,559.389465 
z"/>
<path fill="#94674A" opacity="1.000000" stroke="none" 
	d="
M556.182190,610.645569 
	C557.653320,609.062134 559.462769,607.535706 561.608643,606.022461 
	C560.136841,607.591309 558.328674,609.146973 556.182190,610.645569 
z"/>
<path fill="#94674A" opacity="1.000000" stroke="none" 
	d="
M379.362152,662.908813 
	C380.303711,661.254700 381.572968,659.565552 383.155090,657.821289 
	C382.208588,659.468689 380.949219,661.171204 379.362152,662.908813 
z"/>
<path fill="#94674A" opacity="1.000000" stroke="none" 
	d="
M477.857483,583.029297 
	C479.036438,584.549377 480.067993,586.382629 481.062469,588.549683 
	C479.920258,587.036499 478.815155,585.189575 477.857483,583.029297 
z"/>
<path fill="#94674A" opacity="1.000000" stroke="none" 
	d="
M1432.713623,1395.247803 
	C1431.083252,1396.444824 1429.103271,1397.592163 1426.736206,1398.628418 
	C1428.354004,1397.410889 1430.358887,1396.304565 1432.713623,1395.247803 
z"/>
<path fill="#94674A" opacity="1.000000" stroke="none" 
	d="
M496.102539,607.347168 
	C497.715088,608.015686 499.361786,609.013611 501.075317,610.324707 
	C499.473663,609.650696 497.805176,608.663574 496.102539,607.347168 
z"/>
<path fill="#94674A" opacity="1.000000" stroke="none" 
	d="
M572.427856,594.972046 
	C573.034241,593.337952 573.967407,591.657410 575.206787,589.890259 
	C574.593628,591.510986 573.674133,593.218262 572.427856,594.972046 
z"/>
<path fill="#94674A" opacity="1.000000" stroke="none" 
	d="
M490.381409,602.161560 
	C491.645874,602.853027 492.903076,603.868896 494.188446,605.194275 
	C492.935791,604.497864 491.654968,603.491882 490.381409,602.161560 
z"/>
<path fill="#94674A" opacity="1.000000" stroke="none" 
	d="
M568.414062,599.979004 
	C569.022888,598.646362 569.960449,597.290283 571.205750,595.864197 
	C570.589905,597.181335 569.666321,598.568481 568.414062,599.979004 
z"/>
<path fill="#94674A" opacity="1.000000" stroke="none" 
	d="
M828.906738,553.419922 
	C830.196289,554.104370 831.583130,555.103516 833.034302,556.432129 
	C831.733765,555.752563 830.368835,554.743530 828.906738,553.419922 
z"/>
<path fill="#94674A" opacity="1.000000" stroke="none" 
	d="
M846.887817,569.427856 
	C848.159302,570.225891 849.507324,571.348816 850.875488,572.829346 
	C849.585205,572.042236 848.274780,570.897522 846.887817,569.427856 
z"/>
<path fill="#94674A" opacity="1.000000" stroke="none" 
	d="
M1423.723877,1399.246826 
	C1422.737915,1400.113770 1421.413452,1400.927246 1419.718750,1401.618652 
	C1420.694214,1400.729004 1422.039917,1399.961304 1423.723877,1399.246826 
z"/>
<path fill="#94674A" opacity="1.000000" stroke="none" 
	d="
M801.066101,533.327087 
	C802.259827,533.714294 803.576721,534.397339 804.978882,535.392273 
	C803.772522,535.010376 802.480896,534.316650 801.066101,533.327087 
z"/>
<path fill="#94674A" opacity="1.000000" stroke="none" 
	d="
M371.130493,670.592590 
	C371.621063,669.685913 372.428223,668.817810 373.547180,667.957214 
	C373.055023,668.853577 372.251038,669.742371 371.130493,670.592590 
z"/>
<path fill="#94674A" opacity="1.000000" stroke="none" 
	d="
M384.367828,656.916748 
	C384.650513,655.951111 385.250000,654.932434 386.148346,653.837646 
	C385.859680,654.795593 385.272156,655.829712 384.367828,656.916748 
z"/>
<path fill="#94674A" opacity="1.000000" stroke="none" 
	d="
M298.851288,692.592285 
	C299.376709,692.388428 299.968628,692.408691 300.752045,692.680298 
	C300.268311,692.893188 299.593018,692.854797 298.851288,692.592285 
z"/>
<path fill="#94674A" opacity="1.000000" stroke="none" 
	d="
M553.067139,612.490967 
	C553.327759,611.929077 553.878052,611.445618 554.714905,611.025635 
	C554.453186,611.582458 553.904968,612.075928 553.067139,612.490967 
z"/>
<path fill="#94674A" opacity="1.000000" stroke="none" 
	d="
M502.039124,611.405518 
	C502.664551,611.367065 503.356628,611.622803 504.132751,612.161255 
	C503.513123,612.195923 502.809448,611.947815 502.039124,611.405518 
z"/>
<path fill="#4F3223" opacity="1.000000" stroke="none" 
	d="
M956.889648,1023.685303 
	C955.140625,1021.049744 953.490479,1018.655151 952.495972,1016.013672 
	C945.998047,998.754089 943.193237,980.727356 942.005310,962.436096 
	C941.134155,949.020691 940.174011,935.575684 940.210632,922.146423 
	C940.250122,907.665527 941.786743,893.336243 948.864075,880.120178 
	C954.253479,870.056152 960.794739,865.831665 971.649780,869.693420 
	C984.409119,874.232788 997.055237,879.792053 1008.661194,886.730957 
	C1036.023926,903.090576 1060.893921,922.866516 1082.612305,946.305176 
	C1089.356567,953.583679 1094.993774,961.887329 1101.148560,969.713135 
	C1103.550293,972.766907 1102.675781,975.274231 1100.466187,978.180664 
	C1093.888428,986.833313 1084.742432,992.011597 1075.360840,996.587952 
	C1048.985962,1009.453491 1020.773682,1016.652466 992.031982,1021.540527 
	C980.652283,1023.475891 968.883484,1023.123108 956.889648,1023.685303 
z"/>
<path fill="#4F3223" opacity="1.000000" stroke="none" 
	d="
M1096.830200,1171.191162 
	C1094.145020,1156.113037 1091.235229,1141.474243 1089.082153,1126.724854 
	C1087.792114,1117.886597 1087.189087,1108.875732 1087.185547,1099.942139 
	C1087.182129,1091.010498 1087.358398,1081.873901 1089.221313,1073.206665 
	C1090.936890,1065.224976 1094.673584,1057.596802 1098.147461,1050.103882 
	C1100.286865,1045.489136 1107.960815,1043.041870 1114.736816,1045.620239 
	C1125.715576,1049.797729 1136.737183,1054.312378 1146.859741,1060.199463 
	C1169.945679,1073.625854 1190.687256,1090.340210 1209.485352,1109.279541 
	C1216.585693,1116.433228 1222.435181,1124.833496 1228.802979,1132.707397 
	C1231.913818,1136.553955 1231.623657,1139.894409 1227.974121,1143.622437 
	C1217.508179,1154.313477 1204.237305,1160.062744 1190.674683,1165.153809 
	C1168.658569,1173.418457 1145.906128,1178.986816 1122.538086,1181.712646 
	C1116.289185,1182.441528 1109.884521,1182.207153 1103.582886,1181.852417 
	C1101.976318,1181.762085 1100.036377,1179.796387 1099.066650,1178.196899 
	C1097.897583,1176.268311 1097.599365,1173.811768 1096.830200,1171.191162 
z"/>
<path fill="#4F3223" opacity="1.000000" stroke="none" 
	d="
M1174.333130,874.381348 
	C1155.293823,879.266357 1136.727295,884.514893 1117.897949,888.531250 
	C1109.559448,890.309814 1100.689697,889.809021 1092.059814,889.829773 
	C1090.353027,889.833862 1087.687866,887.840271 1087.078979,886.176941 
	C1081.274292,870.320312 1078.327026,853.824219 1076.992432,837.028809 
	C1076.269409,827.931335 1074.885742,818.791626 1075.231689,809.725525 
	C1075.798218,794.881897 1075.330200,779.826355 1082.707031,765.917542 
	C1087.493896,756.892151 1093.500122,752.610474 1103.190430,756.099121 
	C1114.072876,760.016907 1124.812378,764.854187 1134.759644,770.736450 
	C1154.698486,782.527161 1173.296875,796.357117 1189.452026,813.057251 
	C1198.417969,822.325623 1206.431885,832.515381 1214.867920,842.295715 
	C1217.739258,845.624451 1216.855225,848.448853 1214.078735,851.492554 
	C1204.917969,861.535156 1192.868896,866.757629 1180.751831,871.908508 
	C1178.762817,872.754028 1176.718018,873.468628 1174.333130,874.381348 
z"/>
<path fill="#4F3224" opacity="1.000000" stroke="none" 
	d="
M1323.707153,995.321350 
	C1329.364258,1002.301331 1334.772339,1009.029175 1340.199341,1015.741821 
	C1343.388306,1019.686462 1342.746460,1022.796082 1339.209106,1026.546387 
	C1330.433228,1035.850952 1319.148315,1040.680908 1307.687866,1045.167969 
	C1285.428223,1053.883057 1262.239868,1058.923462 1238.549683,1061.780762 
	C1237.890015,1061.860474 1237.221191,1061.901001 1236.556763,1061.899292 
	C1220.255005,1061.856445 1223.208130,1063.937256 1219.329346,1049.587158 
	C1215.753296,1036.357422 1213.425903,1022.611938 1212.292480,1008.948975 
	C1211.103027,994.611572 1210.974731,980.004883 1212.348511,965.704834 
	C1213.159790,957.261108 1217.228638,948.926208 1220.890991,941.033386 
	C1223.281616,935.880920 1230.542236,934.210999 1237.416260,936.804382 
	C1246.107788,940.083374 1254.898438,943.506042 1262.884033,948.171631 
	C1285.078735,961.138794 1305.140259,977.017700 1323.707153,995.321350 
z"/>
<path fill="#F1B441" opacity="1.000000" stroke="none" 
	d="
M885.073853,1550.443848 
	C889.695923,1551.036133 894.151123,1552.536865 898.690857,1552.863525 
	C908.454529,1553.566284 918.263367,1553.623901 928.050537,1554.023926 
	C934.513306,1554.287964 940.974792,1554.628052 947.425903,1555.087891 
	C948.448975,1555.160889 949.414124,1556.046753 950.692871,1556.822021 
	C947.666565,1564.884888 944.227112,1572.631958 941.088501,1580.499023 
	C939.258057,1585.087280 937.908875,1589.867676 936.088257,1595.326050 
	C946.605835,1600.649414 957.230347,1606.290283 968.111328,1611.383301 
	C971.655701,1613.042358 976.270325,1612.580322 977.983643,1617.625488 
	C975.938354,1621.879150 972.227844,1622.250000 968.392395,1623.106445 
	C957.684204,1625.497437 947.096008,1628.424927 936.454041,1631.115356 
	C934.520386,1631.604370 932.529785,1632.431519 930.610840,1632.319946 
	C920.908081,1631.756470 916.539001,1636.365234 913.774353,1645.659790 
	C908.661865,1662.846924 902.203491,1679.656494 895.786377,1696.424561 
	C891.925415,1706.513062 885.624023,1715.332153 876.527649,1721.294678 
	C863.343933,1729.936157 846.531189,1723.031372 843.180481,1708.508179 
	C841.402649,1700.802612 842.032532,1692.246460 843.066833,1684.267578 
	C844.170166,1675.755737 847.042358,1667.474487 849.115417,1659.085938 
	C849.461792,1657.684570 849.670837,1656.249268 850.275635,1653.098022 
	C845.586914,1656.172852 841.769531,1658.073853 838.690796,1660.806763 
	C828.832825,1669.557373 819.645874,1678.871216 813.438416,1690.820557 
	C811.102173,1695.317749 807.672974,1699.375244 804.195679,1703.126709 
	C795.330261,1712.690552 777.484436,1709.342285 772.049072,1697.400757 
	C768.967346,1690.630127 768.030701,1683.533813 769.588196,1676.422241 
	C773.750732,1657.415405 781.516846,1640.451416 798.361694,1629.067383 
	C799.405396,1628.361938 800.223877,1627.323242 801.498230,1626.103516 
	C795.952881,1621.412476 789.408630,1620.835083 783.168640,1619.643799 
	C776.831177,1618.433838 776.461426,1617.996094 779.145020,1611.616089 
	C788.183472,1608.692383 797.104248,1606.060547 806.054871,1603.534668 
	C808.340088,1602.889771 810.705994,1602.484863 813.059509,1602.136597 
	C819.917114,1601.122437 826.842407,1600.475342 833.636353,1599.147949 
	C840.021667,1597.900269 846.328796,1596.154419 852.569275,1594.289795 
	C859.325745,1592.270996 865.965332,1589.861084 872.005188,1587.839722 
	C876.448608,1575.127686 880.696960,1562.973877 885.073853,1550.443848 
z"/>
</svg>